<svg width="342" height="108" viewBox="0 0 342 108" fill="none" xmlns="http://www.w3.org/2000/svg">
<g clip-path="url(#clip0_7603_340)">
<path d="M102.364 25.6083H136.579C136.776 25.6069 136.972 25.6446 137.154 25.7192C137.337 25.7939 137.502 25.9039 137.642 26.043C137.781 26.1821 137.892 26.3474 137.967 26.5294C138.042 26.7114 138.079 26.9064 138.078 27.1031V32.1856C138.079 32.3823 138.042 32.5773 137.967 32.7592C137.892 32.9412 137.781 33.1066 137.642 33.2456C137.502 33.3847 137.337 33.4948 137.154 33.5694C136.972 33.6441 136.776 33.6818 136.579 33.6804H109.168V49.8351H136.548C136.745 49.8337 136.941 49.8714 137.123 49.946C137.306 50.0207 137.471 50.1307 137.611 50.2698C137.75 50.4089 137.861 50.5742 137.936 50.7562C138.011 50.9382 138.048 51.1332 138.047 51.3299V56.4021C138.048 56.5992 138.011 56.7947 137.936 56.9773C137.861 57.1598 137.751 57.3258 137.612 57.4657C137.472 57.6057 137.306 57.7167 137.124 57.7925C136.941 57.8682 136.745 57.9072 136.548 57.9072H109.168V74.134H136.548C136.745 74.1327 136.941 74.1704 137.123 74.245C137.306 74.3197 137.471 74.4297 137.611 74.5688C137.75 74.7079 137.861 74.8732 137.936 75.0552C138.011 75.2372 138.048 75.4322 138.047 75.6289V80.7835C138.048 80.9802 138.011 81.1752 137.936 81.3572C137.861 81.5392 137.75 81.7045 137.611 81.8436C137.471 81.9827 137.306 82.0927 137.123 82.1674C136.941 82.242 136.745 82.2797 136.548 82.2783H102.364C101.967 82.2783 101.585 82.1209 101.304 81.8405C101.023 81.5602 100.865 81.18 100.865 80.7835V27.1031C100.865 26.7066 101.023 26.3264 101.304 26.0461C101.585 25.7657 101.967 25.6083 102.364 25.6083Z" fill="#1E4041"/>
<path d="M224.674 61.3196C224.715 59.5128 224.396 57.7159 223.736 56.0329C223.076 54.3499 222.087 52.8143 220.827 51.515C219.567 50.2157 218.061 49.1786 216.396 48.4637C214.732 47.7489 212.941 47.3705 211.129 47.3505C203.415 47.3505 197.687 53.5361 197.687 61.3196C197.687 69.1031 203.415 75.2577 211.129 75.2577C212.943 75.2419 214.737 74.866 216.404 74.1519C218.071 73.4379 219.579 72.4 220.84 71.0988C222.101 69.7975 223.089 68.259 223.748 66.5729C224.406 64.8869 224.721 63.087 224.674 61.2783M189.25 61.2783C189.25 56.9639 190.533 52.7463 192.937 49.1589C195.341 45.5715 198.758 42.7755 202.756 41.1244C206.754 39.4733 211.153 39.0414 215.397 39.8831C219.641 40.7248 223.54 42.8024 226.6 45.8532C229.66 48.904 231.743 52.791 232.588 57.0226C233.432 61.2541 232.998 65.6403 231.342 69.6264C229.686 73.6124 226.882 77.0194 223.284 79.4164C219.686 81.8134 215.456 83.0928 211.129 83.0928C208.253 83.1077 205.404 82.5553 202.743 81.4673C200.083 80.3793 197.665 78.7772 195.628 76.7533C193.592 74.7295 191.977 72.3238 190.877 69.675C189.777 67.0262 189.213 64.1865 189.219 61.3196" fill="#1E4041"/>
<path d="M287.757 40.3608H293.248C293.445 40.3608 293.64 40.3995 293.821 40.4746C294.003 40.5498 294.169 40.6599 294.308 40.7987C294.447 40.9375 294.558 41.1023 294.633 41.2836C294.708 41.465 294.747 41.6594 294.747 41.8557V80.7835C294.747 81.18 294.589 81.5602 294.308 81.8405C294.027 82.1209 293.645 82.2784 293.248 82.2784H287.757C287.36 82.2784 286.978 82.1209 286.697 81.8405C286.416 81.5602 286.258 81.18 286.258 80.7835V41.8557C286.258 41.4592 286.416 41.079 286.697 40.7987C286.978 40.5183 287.36 40.3608 287.757 40.3608Z" fill="#1E4041"/>
<path d="M333.614 67.0103V63.4948H321.693C313.907 63.4948 310.794 65.8969 310.794 70.0103C310.794 73.6598 313.286 75.835 318.89 75.835C324.815 75.835 330.967 72.4948 333.614 66.9897M302.233 70.7113C302.233 62.0206 309.316 56.8144 321.155 56.8144H333.563V56.1134C333.563 50.5258 330.13 46.6495 322.654 46.6495C320.457 46.5718 318.275 47.0399 316.304 48.0116C314.333 48.9834 312.635 50.4283 311.363 52.2165C311.148 52.5279 310.825 52.7488 310.457 52.8364C310.088 52.924 309.7 52.8721 309.368 52.6907L304.622 49.9278C304.43 49.813 304.266 49.6574 304.141 49.4721C304.016 49.2868 303.934 49.0763 303.901 48.8557C303.867 48.6351 303.883 48.4098 303.947 48.196C304.01 47.9821 304.121 47.7849 304.27 47.6185C306.554 44.9877 309.395 42.8952 312.589 41.4921C315.782 40.089 319.248 39.4104 322.737 39.5051C334.876 39.5051 341.659 46.1856 341.659 56.3505V80.7835C341.659 81.1764 341.504 81.5535 341.227 81.8333C340.95 82.113 340.574 82.2729 340.18 82.2783H335.114C334.716 82.2783 334.335 82.1209 334.054 81.8405C333.772 81.5602 333.614 81.18 333.614 80.7835V74.9072C331.748 77.5305 329.262 79.6552 326.377 81.0936C323.492 82.532 320.295 83.2398 317.071 83.1546C307.413 83.1546 302.202 77.8763 302.202 70.7835" fill="#1E4041"/>
<path d="M157.982 80.5979C146.288 69.5051 144.116 47.8866 143.951 41.8763C143.947 41.6779 143.983 41.4806 144.056 41.2963C144.13 41.1119 144.24 40.9441 144.38 40.8028C144.519 40.6615 144.686 40.5496 144.87 40.4737C145.054 40.3978 145.251 40.3594 145.45 40.3608H150.775C151.161 40.3578 151.534 40.5045 151.813 40.7699C152.093 41.0354 152.258 41.3988 152.275 41.7835C152.512 47.0309 154.001 65.4948 163.514 74.3814C163.737 74.585 164.028 74.6979 164.331 74.6979C164.633 74.6979 164.925 74.585 165.148 74.3814C174.66 65.4948 176.149 47.0309 176.387 41.7835C176.4 41.4041 176.559 41.0441 176.83 40.7775C177.101 40.511 177.464 40.3582 177.845 40.3505H183.17C183.369 40.3491 183.566 40.3875 183.75 40.4634C183.934 40.5393 184.101 40.6512 184.241 40.7925C184.38 40.9338 184.49 41.1016 184.564 41.2859C184.638 41.4703 184.673 41.6676 184.669 41.866C184.493 47.8866 182.353 69.4639 170.628 80.5876C168.918 82.213 166.647 83.1198 164.284 83.1198C161.922 83.1198 159.65 82.213 157.941 80.5876" fill="#1E4041"/>
<path d="M251.609 80.5979C239.884 69.5052 237.744 47.8866 237.578 41.8763C237.574 41.6779 237.61 41.4807 237.683 41.2963C237.757 41.1119 237.867 40.9441 238.007 40.8028C238.146 40.6615 238.313 40.5496 238.497 40.4737C238.681 40.3978 238.878 40.3594 239.077 40.3608H244.402C244.789 40.3578 245.161 40.5045 245.441 40.77C245.72 41.0354 245.886 41.3988 245.902 41.7835C246.139 47.0309 247.628 65.4948 257.141 74.3814C257.364 74.585 257.656 74.6979 257.958 74.6979C258.26 74.6979 258.552 74.585 258.775 74.3814C268.287 65.4948 269.776 47.0309 270.014 41.7835C270.03 41.3988 270.196 41.0354 270.475 40.77C270.755 40.5045 271.127 40.3578 271.513 40.3608H276.838C277.037 40.3594 277.235 40.3978 277.419 40.4737C277.603 40.5496 277.769 40.6615 277.909 40.8028C278.049 40.9441 278.159 41.1119 278.232 41.2963C278.306 41.4807 278.342 41.6779 278.338 41.8763C278.141 47.8969 276.073 69.4742 264.307 80.5979C262.595 82.224 260.322 83.1311 257.958 83.1311C255.594 83.1311 253.321 82.224 251.609 80.5979Z" fill="#1E4041"/>
<path d="M296.494 27.835C296.494 29.0181 296.142 30.1746 295.483 31.1581C294.824 32.1416 293.886 32.908 292.79 33.3602C291.693 33.8125 290.487 33.9303 289.324 33.6988C288.16 33.4672 287.091 32.8967 286.253 32.0594C285.415 31.2222 284.844 30.1558 284.614 28.9952C284.384 27.8347 284.504 26.6321 284.96 25.5397C285.415 24.4473 286.185 23.5141 287.173 22.8584C288.161 22.2026 289.321 21.8536 290.508 21.8557C292.096 21.8584 293.619 22.4896 294.742 23.6106C295.864 24.7317 296.494 26.251 296.494 27.835Z" fill="#1E4041"/>
<path d="M13.6279 72.3196C17.4939 72.3196 20.6279 69.1948 20.6279 65.3402C20.6279 61.4856 17.4939 58.3608 13.6279 58.3608C9.76186 58.3608 6.62783 61.4856 6.62783 65.3402C6.62783 69.1948 9.76186 72.3196 13.6279 72.3196Z" fill="#EA5A4A"/>
<path d="M39.86 76.0722C38.4228 85.4948 37.9678 99.0103 37.7921 106.567C37.78 106.839 37.674 107.098 37.4919 107.3C37.3099 107.502 37.0632 107.635 36.7937 107.677C36.5242 107.718 36.2488 107.665 36.0141 107.527C35.7795 107.388 35.6003 107.173 35.507 106.918C29.0032 87.8763 29.0032 52.7629 29.0032 52.7629C19.5032 51.3059 10.1459 49.0399 1.03398 45.9897C0.79199 45.9002 0.586146 45.734 0.448055 45.5166C0.309963 45.2992 0.247258 45.0426 0.269566 44.7862C0.291875 44.5298 0.397964 44.2878 0.571546 44.0974C0.745127 43.9069 0.976605 43.7785 1.23044 43.7319C14.2548 41.5662 27.4315 40.439 40.6355 40.3608C53.8429 40.4391 67.0231 41.5664 80.0509 43.7319C80.3048 43.7785 80.5362 43.9069 80.7098 44.0974C80.8834 44.2878 80.9895 44.5298 81.0118 44.7862C81.0341 45.0426 80.9714 45.2992 80.8333 45.5166C80.6952 45.734 80.4894 45.9002 80.2474 45.9897C71.1489 49.0376 61.8055 51.3036 52.3195 52.7629C52.3195 52.7629 52.3195 78.9588 48.1215 98.4021C48.0706 98.6684 47.9281 98.9086 47.7186 99.0814C47.5091 99.2542 47.2457 99.3488 46.9738 99.3488C46.7019 99.3488 46.4385 99.2542 46.229 99.0814C46.0195 98.9086 45.877 98.6684 45.8261 98.4021C44.7921 92.8557 43.2411 83.9691 41.6075 76.0825C41.5853 75.8676 41.4843 75.6685 41.3239 75.5233C41.1635 75.3781 40.955 75.2971 40.7384 75.2958C40.5217 75.2945 40.3123 75.3731 40.1502 75.5164C39.988 75.6596 39.8847 75.8576 39.86 76.0722Z" fill="#1E4041"/>
<path d="M40.6769 36.8557C44.5429 36.8557 47.6769 33.7309 47.6769 29.8763C47.6769 26.0217 44.5429 22.8969 40.6769 22.8969C36.8108 22.8969 33.6768 26.0217 33.6768 29.8763C33.6768 33.7309 36.8108 36.8557 40.6769 36.8557Z" fill="#1E4041"/>
<path d="M63.0936 29.8763C66.9596 29.8763 70.0937 26.7515 70.0937 22.8969C70.0937 19.0423 66.9596 15.9175 63.0936 15.9175C59.2276 15.9175 56.0935 19.0423 56.0935 22.8969C56.0935 26.7515 59.2276 29.8763 63.0936 29.8763Z" fill="#EA5A4A"/>
<path d="M74.1262 75.7526C62.0389 76.0515 60.7982 65.8041 60.6844 62.3505C60.6831 62.1962 60.7122 62.0431 60.7702 61.9C60.8282 61.7569 60.9138 61.6265 61.0223 61.5164C61.1308 61.4064 61.26 61.3186 61.4025 61.2583C61.545 61.198 61.698 61.1663 61.8528 61.1649C73.9401 60.8557 75.1808 71.1134 75.2946 74.567C75.296 74.7213 75.2668 74.8744 75.2088 75.0176C75.1509 75.1607 75.0652 75.291 74.9567 75.4011C74.8482 75.5112 74.719 75.5989 74.5765 75.6592C74.434 75.7195 74.281 75.7512 74.1262 75.7526Z" fill="#1E4041"/>
<path d="M35.1554 15.9072C23.1405 15.1546 22.7476 4.83505 23.0268 1.37113C23.0607 1.07115 23.2101 0.79602 23.4435 0.60371C23.6769 0.411399 23.976 0.316927 24.2779 0.340201C36.3548 1.03092 36.6857 11.3402 36.4582 14.8247C36.4481 14.9826 36.4058 15.1368 36.3339 15.2779C36.262 15.4189 36.1621 15.5439 36.0402 15.6452C35.9183 15.7465 35.777 15.822 35.6248 15.867C35.4727 15.9121 35.313 15.9257 35.1554 15.9072Z" fill="#1E4041"/>
<path d="M25.7255 26.8041C15.3857 33.0825 9.18176 24.835 7.39297 21.866C7.31301 21.7336 7.26025 21.5867 7.23777 21.4339C7.21528 21.281 7.22353 21.1252 7.26202 20.9755C7.30051 20.8258 7.36848 20.6853 7.46196 20.5621C7.55545 20.4388 7.67259 20.3354 7.80657 20.2577C18.1464 13.9691 24.3503 22.2268 26.1391 25.1959C26.219 25.3282 26.2718 25.4751 26.2943 25.628C26.3168 25.7809 26.3085 25.9367 26.27 26.0863C26.2315 26.236 26.1636 26.3766 26.0701 26.4998C25.9766 26.623 25.8595 26.7265 25.7255 26.8041Z" fill="#1E4041"/>
</g>
<defs>
<clipPath id="clip0_7603_340">
<rect width="342" height="108" fill="white"/>
</clipPath>
</defs>
</svg>
